<svg xmlns="http://www.w3.org/2000/svg" width="299.384" height="87.673" viewBox="0 0 299.384 87.673"><defs><style>.a{fill:#fc206c;}.b{fill:#fff;}</style></defs><path class="a" d="M288.3,87.673H11.087A11.059,11.059,0,0,1,0,76.716V10.96A11.061,11.061,0,0,1,11.087,0H288.3a11.061,11.061,0,0,1,11.087,10.96V76.716A11.055,11.055,0,0,1,288.3,87.673Z" transform="translate(0 0)"/><path class="b" d="M3536.286,587.4a6.955,6.955,0,0,1-5.016-2.02,7.132,7.132,0,0,1,0-10.047,6.931,6.931,0,0,1,5.016-2.031,7.24,7.24,0,0,1,2.8.571,5.59,5.59,0,0,1,2.147,1.515l.1.125-1.408,1.406-.125-.145a4.347,4.347,0,0,0-3.517-1.489,4.958,4.958,0,0,0-3.514,1.406,5.3,5.3,0,0,0,0,7.334,5.007,5.007,0,0,0,3.514,1.4,4.923,4.923,0,0,0,3.592-1.414,3.806,3.806,0,0,0,1.042-2.363h-4.811v-1.937h6.761l.031.138a4.678,4.678,0,0,1,.1,1.032,6.131,6.131,0,0,1-1.7,4.515A6.717,6.717,0,0,1,3536.286,587.4Z" transform="translate(-3437.67 -558.431)"/><path class="b" d="M4150.618,598.494H4142.5V585h8.118v1.969h-6.05v3.81h5.457v1.937h-5.457v3.81h6.05Z" transform="translate(-4035.064 -569.828)"/><path class="b" d="M4516.48,598.494h-2.067V586.969H4510.7V585h9.5v1.969h-3.714Z" transform="translate(-4393.714 -569.828)"/><path class="b" d="M5120.264,598.494H5118.2V585h2.064Z" transform="translate(-4985.459 -569.828)"/><path class="b" d="M5273.081,598.494h-2.055V586.969H5267.3V585h9.5v1.969h-3.727v11.525Z" transform="translate(-5130.692 -569.828)"/><path class="b" d="M5842.523,587.593a6.784,6.784,0,0,1-5.011-2.044,7.224,7.224,0,0,1,0-10.006,7.122,7.122,0,0,1,10,.013,7.2,7.2,0,0,1,.011,10h0A6.781,6.781,0,0,1,5842.523,587.593Zm-3.493-3.395a4.981,4.981,0,0,0,6.974,0,5.378,5.378,0,0,0,0-7.309,4.981,4.981,0,0,0-6.974,0,5.386,5.386,0,0,0,0,7.309Z" transform="translate(-5684.156 -558.626)"/><path class="b" d="M6466.207,598.494h-2.06l-.052-.083-6.5-10.3.06,2.015v8.369H6455.6V585h2.352l6.25,9.881-.059-2V585h2.064Z" transform="translate(-6288.174 -569.828)"/><path class="b" d="M3569.386,1451.014a9.324,9.324,0,1,0,9.474,9.324A9.246,9.246,0,0,0,3569.386,1451.014Zm0,14.972a5.66,5.66,0,1,1,5.327-5.649A5.416,5.416,0,0,1,3569.386,1465.987Zm-20.649-14.972a9.323,9.323,0,1,0,9.463,9.324A9.238,9.238,0,0,0,3548.737,1451.014Zm0,14.972a5.66,5.66,0,1,1,5.316-5.649A5.423,5.423,0,0,1,3548.737,1465.987Zm-24.571-12.114v3.963h9.573a8.182,8.182,0,0,1-2.176,4.974,9.9,9.9,0,0,1-7.4,2.892,10.522,10.522,0,0,1,0-21.044,10.209,10.209,0,0,1,7.212,2.824l2.824-2.791a14.051,14.051,0,0,0-10.037-3.991,14.485,14.485,0,1,0,0,28.959,13.471,13.471,0,0,0,10.224-4.067,12.97,12.97,0,0,0,3.465-9.246,13.232,13.232,0,0,0-.215-2.474Zm100.478,3.071c-.778-2.085-3.182-5.929-8.079-5.929-4.853,0-8.891,3.779-8.891,9.324a9.172,9.172,0,0,0,9.354,9.321,9.373,9.373,0,0,0,7.861-4.131l-3.216-2.119a5.405,5.405,0,0,1-4.645,2.578,4.8,4.8,0,0,1-4.567-2.824l12.615-5.158S3624.644,1456.943,3624.644,1456.943Zm-12.864,3.1a5.141,5.141,0,0,1,4.925-5.436,3.67,3.67,0,0,1,3.509,1.979S3611.78,1460.048,3611.78,1460.048Zm-10.252,9.043h4.147v-27.4h-4.147Zm-6.792-16h-.138a6.573,6.573,0,0,0-4.959-2.077,9.327,9.327,0,0,0,0,18.645,6.464,6.464,0,0,0,4.959-2.119h.138v1.338c0,3.563-1.927,5.48-5.034,5.48a5.229,5.229,0,0,1-4.754-3.33l-3.608,1.489a9,9,0,0,0,8.362,5.514c4.863,0,8.966-2.827,8.966-9.708v-16.741h-3.932Zm-4.744,12.9a5.667,5.667,0,0,1,0-11.3,4.93,4.93,0,0,1,3.9,2.013,5.911,5.911,0,0,1,1.134,3.669C3595.028,1463.624,3592.808,1465.987,3589.992,1465.987Zm54.066-24.293h-9.917v27.4h4.137v-10.382h5.784c4.593,0,9.1-3.286,9.1-8.509S3648.641,1441.693,3644.058,1441.693Zm.109,13.206h-5.89v-9.394h5.89a4.7,4.7,0,1,1,0,9.394Zm25.566-3.937c-2.988,0-6.094,1.3-7.373,4.194l3.67,1.52a3.929,3.929,0,0,1,3.778-2.012c2.145,0,4.321,1.273,4.354,3.524v.288a9.165,9.165,0,0,0-4.32-1.061c-3.953,0-7.98,2.15-7.98,6.165,0,3.672,3.237,6.035,6.878,6.035a5.874,5.874,0,0,0,5.283-2.684h.143v2.119h3.994v-10.509C3678.158,1453.681,3674.488,1450.963,3669.734,1450.963Zm-.5,15.014c-1.354,0-3.237-.664-3.237-2.321,0-2.122,2.35-2.933,4.386-2.933a7.487,7.487,0,0,1,3.781.921A5,5,0,0,1,3669.234,1465.976Zm23.479-14.415-4.754,11.878h-.143l-4.915-11.878h-4.461l7.384,16.6-4.214,9.235h4.321l11.38-25.834Zm-37.282,17.53h4.147v-27.4h-4.147Z" transform="translate(-3418.286 -1403.335)"/><path class="b" d="M-2913.73-5543.04h0a4.314,4.314,0,0,1-1.03-3.081V-5594.6a4.33,4.33,0,0,1,1.029-3.08h0c.044-.046.09-.09.137-.133l.026-.026h0c1.039-.921,2.642-.987,4.45.017l32.194,18.082h0l.058.033.146.082h0l0,0,10.852,6.1c3.1,1.732,3.1,4.579,0,6.323l-10.852,6.088s-.218.118-.218.118h0l-32.18,18.076a5.172,5.172,0,0,1-2.493.739A2.859,2.859,0,0,1-2913.73-5543.04Zm27.643-27.323v0Z" transform="translate(2936.873 5614.2)"/></svg>