<svg xmlns="http://www.w3.org/2000/svg" width="299.384" height="87.673" viewBox="0 0 299.384 87.673"><defs><style>.a{fill:#ac1881;}.b{fill:#fff;}</style></defs><g transform="translate(-1002.76 -5609)"><path class="a" d="M288.3,87.673H11.087A11.059,11.059,0,0,1,0,76.716V10.96A11.061,11.061,0,0,1,11.087,0H288.3a11.061,11.061,0,0,1,11.087,10.96V76.716A11.055,11.055,0,0,1,288.3,87.673Z" transform="translate(1002.76 5609)"/><g transform="translate(0 -1)"><g transform="translate(4.662 -3.041)"><g transform="translate(1036.339 5626.041)"><path class="b" d="M47.135,29.865a12.426,12.426,0,0,1,5.917-10.428,12.72,12.72,0,0,0-10.023-5.42c-4.217-.442-8.305,2.524-10.455,2.524-2.19,0-5.5-2.481-9.061-2.406a13.349,13.349,0,0,0-11.234,6.849C7.421,29.4,11.045,41.755,15.7,48.553c2.328,3.328,5.048,7.045,8.609,6.914,3.483-.146,4.784-2.223,8.989-2.223,4.167,0,5.387,2.223,9.019,2.137,3.74-.06,6.093-3.343,8.341-6.7a27.523,27.523,0,0,0,3.812-7.765A12.009,12.009,0,0,1,47.135,29.865Z" transform="translate(-9.972 -0.78)"/><path class="b" d="M26.944,17.488a12.233,12.233,0,0,0,2.8-8.768,12.452,12.452,0,0,0-8.057,4.169,11.652,11.652,0,0,0-2.873,8.441A10.293,10.293,0,0,0,26.944,17.488Z" transform="translate(3.358 -8.72)"/></g><g transform="translate(1095.604 5653.058)"><path class="b" d="M51.688,37.941H41.314L38.822,45.3H34.427l9.829-27.219h4.566L58.648,45.3H54.178Zm-9.3-3.4h8.224L46.557,22.606h-.112Z" transform="translate(-34.427 -17.624)"/><path class="b" d="M65.326,31.481c0,6.166-3.3,10.129-8.283,10.129A6.728,6.728,0,0,1,50.8,38.138h-.094v9.829H46.631V21.556h3.943v3.3h.075a7.04,7.04,0,0,1,6.319-3.507C62.005,21.35,65.326,25.33,65.326,31.481Zm-4.187,0c0-4.018-2.078-6.659-5.245-6.659-3.113,0-5.206,2.7-5.206,6.659,0,4,2.093,6.677,5.206,6.677C59.061,38.158,61.139,35.534,61.139,31.481Z" transform="translate(-19.881 -13.729)"/><path class="b" d="M75.291,31.481c0,6.166-3.3,10.129-8.283,10.129a6.728,6.728,0,0,1-6.243-3.472h-.094v9.829H56.6V21.556h3.943v3.3h.075a7.04,7.04,0,0,1,6.319-3.507C71.97,21.35,75.291,25.33,75.291,31.481Zm-4.189,0c0-4.018-2.076-6.659-5.243-6.659-3.113,0-5.206,2.7-5.206,6.659,0,4,2.093,6.677,5.206,6.677,3.167,0,5.243-2.624,5.243-6.677Z" transform="translate(-8.004 -13.729)"/><path class="b" d="M73.977,37.96c.3,2.7,2.924,4.471,6.508,4.471,3.435,0,5.9-1.771,5.9-4.206,0-2.113-1.49-3.378-5.017-4.244l-3.529-.85c-5-1.208-7.319-3.544-7.319-7.339,0-4.7,4.092-7.922,9.905-7.922,5.752,0,9.695,3.226,9.826,7.922H86.144c-.245-2.716-2.49-4.355-5.773-4.355S74.845,23.1,74.845,25.51c0,1.924,1.433,3.058,4.943,3.924l3,.736c5.585,1.322,7.9,3.564,7.9,7.547C90.69,42.808,86.635,46,80.184,46c-6.036,0-10.113-3.115-10.376-8.038Z" transform="translate(7.744 -17.871)"/><path class="b" d="M87.14,19.3V24h3.774v3.226H87.14v10.94c0,1.7.756,2.492,2.415,2.492a13.051,13.051,0,0,0,1.339-.094v3.207a11.341,11.341,0,0,1-2.262.189c-4.018,0-5.585-1.51-5.585-5.359V27.222H80.163V24h2.885V19.3Z" transform="translate(20.086 -16.168)"/><path class="b" d="M86.065,31.5c0-6.245,3.678-10.168,9.412-10.168,5.754,0,9.414,3.924,9.414,10.168,0,6.26-3.641,10.166-9.414,10.166S86.065,37.759,86.065,31.5Zm14.675,0c0-4.283-1.962-6.812-5.263-6.812s-5.261,2.547-5.261,6.812c0,4.3,1.96,6.808,5.261,6.808S100.74,35.8,100.74,31.5Z" transform="translate(27.121 -13.747)"/><path class="b" d="M96.186,21.556h3.886v3.378h.094a4.731,4.731,0,0,1,4.772-3.584,6.236,6.236,0,0,1,1.4.151v3.81a5.741,5.741,0,0,0-1.83-.245A4.105,4.105,0,0,0,100.237,29a4.342,4.342,0,0,0,.022.631V41.4H96.186Z" transform="translate(39.184 -13.729)"/><path class="b" d="M119.118,35.592c-.548,3.6-4.055,6.074-8.544,6.074-5.773,0-9.357-3.867-9.357-10.072,0-6.225,3.6-10.263,9.186-10.263,5.491,0,8.943,3.772,8.943,9.789v1.4H105.329v.245a5.17,5.17,0,0,0,4.693,5.6,5.307,5.307,0,0,0,.647.015,4.489,4.489,0,0,0,4.583-2.79Zm-13.77-5.923h9.921a4.771,4.771,0,0,0-4.5-5.03q-.184-.01-.368-.007a5.023,5.023,0,0,0-5.055,4.993Z" transform="translate(45.18 -13.747)"/></g><g transform="translate(1095.878 5626.041)"><path class="b" d="M40.395,8.739A5.787,5.787,0,0,1,46.58,14.1a5.848,5.848,0,0,1-.031,1.142c0,4.178-2.258,6.58-6.155,6.58H35.671V8.739ZM37.7,19.968h2.466a4.11,4.11,0,0,0,4.349-3.86,4.033,4.033,0,0,0-.037-.844,4.126,4.126,0,0,0-4.311-4.678H37.7Z" transform="translate(-35.671 -8.095)"/><path class="b" d="M41.694,15.228a4.676,4.676,0,1,1,9.309,0,4.677,4.677,0,1,1-9.309.907A4.485,4.485,0,0,1,41.694,15.228Zm7.306,0c0-2.139-.962-3.391-2.648-3.391s-2.646,1.252-2.646,3.391c0,2.157.951,3.4,2.646,3.4S49,17.376,49,15.228Z" transform="translate(-28.52 -6.445)"/><path class="b" d="M57.537,20.065H55.516l-2.038-7.271h-.156l-2.03,7.271h-2l-2.722-9.87h1.977l1.767,7.531h.147l2.03-7.531h1.868l2.03,7.531h.153l1.76-7.531h1.949Z" transform="translate(-22.682 -6.342)"/><path class="b" d="M53.854,10.3h1.874v1.567h.145a2.953,2.953,0,0,1,2.946-1.758,3.208,3.208,0,0,1,3.441,2.961,3.083,3.083,0,0,1-.024.71v6.389H60.287v-5.9c0-1.587-.688-2.376-2.131-2.376A2.273,2.273,0,0,0,55.8,14.4v5.776H53.854Z" transform="translate(-13.999 -6.451)"/><path class="b" d="M59.094,8.437H61.04V22.161H59.094Z" transform="translate(-7.753 -8.437)"/><path class="b" d="M61.231,15.228a4.676,4.676,0,1,1,9.309,0,4.676,4.676,0,1,1-9.309.905A4.463,4.463,0,0,1,61.231,15.228Zm7.306,0c0-2.139-.962-3.391-2.648-3.391s-2.646,1.252-2.646,3.391c0,2.157.951,3.4,2.646,3.4S68.536,17.376,68.536,15.228Z" transform="translate(-5.234 -6.445)"/><path class="b" d="M66.4,17.376c0-1.775,1.322-2.8,3.671-2.946l2.672-.153v-.853c0-1.041-.688-1.631-2.019-1.631-1.089,0-1.841.4-2.058,1.1H66.782c.2-1.694,1.793-2.782,4.033-2.782,2.472,0,3.869,1.232,3.869,3.316v6.744H72.81V18.781h-.156a3.32,3.32,0,0,1-2.963,1.55,2.982,2.982,0,0,1-3.275-2.657C66.408,17.576,66.4,17.477,66.4,17.376Zm6.343-.842v-.826l-2.409.153c-1.359.092-1.977.555-1.977,1.425,0,.888.772,1.405,1.83,1.405a2.326,2.326,0,0,0,2.549-2.08Z" transform="translate(0.956 -6.445)"/><path class="b" d="M71.348,17.22c0-3.119,1.6-5.094,4.1-5.094a3.252,3.252,0,0,1,3.027,1.732h.147V8.437h1.946V22.161H78.7V20.6h-.156a3.423,3.423,0,0,1-3.1,1.723C72.935,22.323,71.348,20.348,71.348,17.22Zm2.012,0c0,2.093.986,3.354,2.637,3.354s2.657-1.278,2.657-3.345S77.628,13.875,76,13.875,73.36,15.144,73.36,17.22Z" transform="translate(6.853 -8.437)"/><path class="b" d="M79.242,15.228a4.676,4.676,0,1,1,9.309,0,4.677,4.677,0,1,1-9.309.907A4.828,4.828,0,0,1,79.242,15.228Zm7.306,0c0-2.139-.96-3.391-2.648-3.391s-2.646,1.252-2.646,3.391c0,2.157.953,3.4,2.646,3.4S86.547,17.376,86.547,15.228Z" transform="translate(16.236 -6.445)"/><path class="b" d="M84.669,10.3h1.876v1.567h.145a2.953,2.953,0,0,1,2.946-1.758,3.217,3.217,0,0,1,3.417,3.671v6.389H91.1v-5.9c0-1.587-.688-2.376-2.131-2.376a2.266,2.266,0,0,0-2.367,2.157,2.567,2.567,0,0,0,.011.344v5.776H84.669Z" transform="translate(22.73 -6.451)"/><path class="b" d="M95.427,9.074v2.5h2.139v1.642H95.427v5.074c0,1.035.427,1.488,1.4,1.488a7.042,7.042,0,0,0,.743-.046v1.622a6.391,6.391,0,0,1-1.061.1c-2.166,0-3.027-.763-3.027-2.665V13.217H91.911V11.575h1.567v-2.5Z" transform="translate(31.362 -7.678)"/><path class="b" d="M95.705,8.437h1.929v5.438h.156a3.037,3.037,0,0,1,3.009-1.767,3.251,3.251,0,0,1,3.424,3.069,3.362,3.362,0,0,1-.024.612v6.372h-1.951V16.269c0-1.576-.734-2.376-2.111-2.376A2.306,2.306,0,0,0,97.651,16a2.346,2.346,0,0,0,0,.392v5.765H95.705Z" transform="translate(35.884 -8.437)"/><path class="b" d="M109.588,17.5a4.008,4.008,0,0,1-4.276,2.856,4.483,4.483,0,0,1-4.6-4.364,4.553,4.553,0,0,1,.039-.732,4.554,4.554,0,0,1,3.908-5.116,4.492,4.492,0,0,1,.642-.039c2.746,0,4.4,1.876,4.4,4.976v.679h-6.97v.11a2.609,2.609,0,0,0,2.38,2.819c.083.007.167.009.248.009a2.371,2.371,0,0,0,2.35-1.2Zm-6.852-3.18h4.987a2.382,2.382,0,0,0-2.2-2.551,2.018,2.018,0,0,0-.23-.007,2.524,2.524,0,0,0-2.556,2.492v.066Z" transform="translate(41.851 -6.445)"/></g></g></g></g></svg>