<svg xmlns="http://www.w3.org/2000/svg" width="85.034" height="98.558" viewBox="0 0 85.034 98.558"><defs><style>.a{fill:#050000;opacity:0.7;}</style></defs><path class="a" d="M292.412,118.327a33.564,33.564,0,0,1-10.667,4.82c-.528.414-1.067.813-1.59,1.233-.075-.32-.138-.641-.209-.961a2.88,2.88,0,0,1-2.838-2.831c-1.917-29.254,24.4-49.318,50.461-56.272a56.405,56.405,0,0,0-36.5,14.617,61.033,61.033,0,0,0-13.228,12.642c-8.09,10.48-15.45,27.831-9.07,40.682L260.8,137.67A1.7,1.7,0,0,0,260.31,140c-.005.055-.005.11-.005.165A1.479,1.479,0,0,0,261.44,142l.546.118a168.825,168.825,0,0,0,27.1,7.723,1.709,1.709,0,0,0,2.139-1.63,117.992,117.992,0,0,1,1.181-29.558A1.581,1.581,0,0,0,292.412,118.327Zm-20.955-8.959c-.063.462-.112.926-.15,1.39a44.181,44.181,0,0,0-1.853,7.116A39.6,39.6,0,0,1,271.457,109.368Zm-.942,27.926a1.542,1.542,0,0,0-1.886,1.176l-.8-.242a1.755,1.755,0,0,0-.192-.038q1.652-1.23,3.3-2.458c.091.119.173.242.267.361a1.212,1.212,0,0,0,.87.466c.105.444.228.866.365,1.271C271.823,137.63,271.185,137.45,270.515,137.294Zm4.051-2.42a1.623,1.623,0,0,0-.811-.373c-.082-.223-.153-.447-.23-.671.092-.075.187-.149.277-.225l.225-.166c.03-.012.057-.025.087-.036a1.571,1.571,0,0,0,.232.1c.1.379.185.758.3,1.137a.732.732,0,0,0,1.411-.389c-.071-.338-.121-.679-.187-1.017a1.354,1.354,0,0,0,.4-1,1.613,1.613,0,0,0,.53.175,34.807,34.807,0,0,0,.35,4.7Zm6.419,6.586a1.439,1.439,0,0,0-.018-.726c-.305-1.047-.534-2.082-.73-3.117a29.245,29.245,0,0,1,1.358,3.922C281.391,141.514,281.188,141.487,280.985,141.46Zm2.549-13.435a31.807,31.807,0,0,0-.052,3.368q-.7-1.038-1.4-2.078C282.563,128.878,283.046,128.445,283.534,128.025Zm1.049,13.806a1.523,1.523,0,0,0-.036-.586q-.625-2.326-1.25-4.653.691,1.055,1.382,2.11a1.556,1.556,0,0,0,1.863.617c.066.873.122,1.747.181,2.621C286.006,141.914,285.292,141.881,284.583,141.831Z" transform="translate(304.705 219.724) rotate(-167)"/></svg>