<svg xmlns="http://www.w3.org/2000/svg" width="85.034" height="98.558" viewBox="0 0 85.034 98.558"><defs><style>.a{fill:#050000;opacity:0.7;}</style></defs><path class="a" d="M32.36,31.552a33.564,33.564,0,0,0-10.667-4.82c-.528-.414-1.067-.813-1.59-1.233-.075.32-.138.641-.209.961a2.88,2.88,0,0,0-2.838,2.831c-1.917,29.254,24.4,49.318,50.461,56.272a56.405,56.405,0,0,1-36.5-14.617A61.033,61.033,0,0,1,17.789,58.3C9.7,47.824,2.339,30.473,8.719,17.622L.753,12.209A1.7,1.7,0,0,1,.258,9.882c-.005-.055-.005-.11-.005-.165A1.479,1.479,0,0,1,1.388,7.875l.546-.118A168.825,168.825,0,0,1,29.033.034a1.709,1.709,0,0,1,2.139,1.63,117.992,117.992,0,0,0,1.181,29.558A1.581,1.581,0,0,1,32.36,31.552ZM11.405,40.511c-.063-.462-.112-.926-.15-1.39A44.181,44.181,0,0,1,9.4,32,39.6,39.6,0,0,0,11.405,40.511Zm-.942-27.926a1.542,1.542,0,0,1-1.886-1.176l-.8.242a1.755,1.755,0,0,1-.192.038q1.652,1.23,3.3,2.458c.091-.119.173-.242.267-.361a1.212,1.212,0,0,1,.87-.466c.105-.444.228-.866.365-1.271C11.771,12.249,11.133,12.429,10.463,12.585ZM14.514,15a1.623,1.623,0,0,1-.811.373c-.082.223-.153.447-.23.671.092.075.187.149.277.225l.225.166c.03.012.057.025.087.036a1.571,1.571,0,0,1,.232-.1c.1-.379.185-.758.3-1.137A.732.732,0,0,1,16,15.632c-.071.338-.121.679-.187,1.017a1.354,1.354,0,0,1,.4,1,1.613,1.613,0,0,1,.53-.175,34.807,34.807,0,0,1,.35-4.7Zm6.419-6.586a1.439,1.439,0,0,1-.018.726c-.305,1.047-.534,2.082-.73,3.117A29.245,29.245,0,0,0,21.543,8.34C21.339,8.365,21.136,8.392,20.933,8.419Zm2.549,13.435a31.807,31.807,0,0,1-.052-3.368q-.7,1.038-1.4,2.078C22.511,21,22.994,21.434,23.482,21.854ZM24.531,8.048a1.523,1.523,0,0,1-.036.586q-.625,2.326-1.25,4.653.691-1.055,1.382-2.11a1.556,1.556,0,0,1,1.863-.617c.066-.873.122-1.747.181-2.621C25.954,7.965,25.24,8,24.531,8.048Z" transform="translate(0 15.188) rotate(-13)"/></svg>